<svg width="56" height="56" viewBox="0 0 56 56" fill="none" xmlns="http://www.w3.org/2000/svg">
<path d="M0 14C0 6.26801 6.26801 0 14 0H42C49.732 0 56 6.26801 56 14V42C56 49.732 49.732 56 42 56H14C6.26801 56 0 49.732 0 42V14Z" fill="url(#paint0_linear_1_62)"/>
<path d="M18.6667 30.3334C18.446 30.3341 18.2295 30.2722 18.0425 30.1548C17.8555 30.0375 17.7057 29.8694 17.6104 29.6703C17.5151 29.4711 17.4782 29.249 17.5042 29.0298C17.5301 28.8105 17.6176 28.6031 17.7567 28.4317L29.3067 16.5317C29.3934 16.4317 29.5114 16.3641 29.6416 16.34C29.7717 16.316 29.9061 16.3369 30.0228 16.3993C30.1394 16.4617 30.2314 16.5619 30.2836 16.6835C30.3358 16.8051 30.3452 16.9408 30.3101 17.0684L28.0701 24.0917C28.004 24.2685 27.9818 24.4586 28.0054 24.6459C28.029 24.8331 28.0977 25.0118 28.2055 25.1667C28.3133 25.3216 28.4571 25.448 28.6246 25.535C28.792 25.6221 28.978 25.6673 29.1667 25.6667H37.3334C37.5542 25.6659 37.7706 25.7278 37.9576 25.8452C38.1446 25.9626 38.2945 26.1306 38.3898 26.3298C38.4851 26.5289 38.5219 26.751 38.496 26.9703C38.4701 27.1895 38.3825 27.3969 38.2434 27.5684L26.6934 39.4684C26.6068 39.5684 26.4887 39.6359 26.3586 39.66C26.2285 39.6841 26.0941 39.6632 25.9774 39.6008C25.8607 39.5384 25.7687 39.4381 25.7165 39.3166C25.6643 39.195 25.655 39.0593 25.6901 38.9317L27.9301 31.9084C27.9961 31.7316 28.0183 31.5414 27.9947 31.3542C27.9711 31.167 27.9025 30.9882 27.7946 30.8334C27.6868 30.6785 27.543 30.5521 27.3756 30.465C27.2082 30.3779 27.0221 30.3327 26.8334 30.3334H18.6667Z" stroke="white" stroke-width="2.33333" stroke-linecap="round" stroke-linejoin="round"/>
<defs>
<linearGradient id="paint0_linear_1_62" x1="0" y1="0" x2="56" y2="56" gradientUnits="userSpaceOnUse">
<stop stop-color="#2B7FFF"/>
<stop offset="1" stop-color="#4F39F6"/>
</linearGradient>
</defs>
</svg>
