<svg width="56" height="56" viewBox="0 0 56 56" fill="none" xmlns="http://www.w3.org/2000/svg">
<path d="M0 14C0 6.26801 6.26801 0 14 0H42C49.732 0 56 6.26801 56 14V42C56 49.732 49.732 56 42 56H14C6.26801 56 0 49.732 0 42V14Z" fill="url(#paint0_linear_1_54)"/>
<path d="M37.3334 29.1667C37.3334 35 33.2501 37.9167 28.3967 39.6083C28.1426 39.6945 27.8665 39.6903 27.6151 39.5967C22.7501 37.9167 18.6667 35 18.6667 29.1667V21C18.6667 20.6906 18.7897 20.3939 19.0085 20.1751C19.2272 19.9563 19.524 19.8333 19.8334 19.8333C22.1667 19.8333 25.0834 18.4333 27.1134 16.66C27.3606 16.4488 27.675 16.3328 28.0001 16.3328C28.3252 16.3328 28.6396 16.4488 28.8867 16.66C30.9284 18.445 33.8334 19.8333 36.1667 19.8333C36.4762 19.8333 36.7729 19.9563 36.9917 20.1751C37.2105 20.3939 37.3334 20.6906 37.3334 21V29.1667Z" stroke="white" stroke-width="2.33333" stroke-linecap="round" stroke-linejoin="round"/>
<defs>
<linearGradient id="paint0_linear_1_54" x1="0" y1="0" x2="56" y2="56" gradientUnits="userSpaceOnUse">
<stop stop-color="#2B7FFF"/>
<stop offset="1" stop-color="#4F39F6"/>
</linearGradient>
</defs>
</svg>
