<svg width="56" height="56" viewBox="0 0 56 56" fill="none" xmlns="http://www.w3.org/2000/svg">
<path d="M0 14C0 6.26801 6.26801 0 14 0H42C49.732 0 56 6.26801 56 14V42C56 49.732 49.732 56 42 56H14C6.26801 56 0 49.732 0 42V14Z" fill="url(#paint0_linear_1_70)"/>
<path d="M32.6666 38.5V36.1667C32.6666 34.929 32.1749 33.742 31.2997 32.8668C30.4246 31.9917 29.2376 31.5 27.9999 31.5H20.9999C19.7622 31.5 18.5753 31.9917 17.7001 32.8668C16.8249 33.742 16.3333 34.929 16.3333 36.1667V38.5" stroke="white" stroke-width="2.33333" stroke-linecap="round" stroke-linejoin="round"/>
<path d="M32.6667 17.6494C33.6675 17.9088 34.5537 18.4932 35.1864 19.3108C35.819 20.1284 36.1623 21.1329 36.1623 22.1667C36.1623 23.2005 35.819 24.205 35.1864 25.0226C34.5537 25.8402 33.6675 26.4246 32.6667 26.684" stroke="white" stroke-width="2.33333" stroke-linecap="round" stroke-linejoin="round"/>
<path d="M39.6667 38.5V36.1667C39.666 35.1327 39.3218 34.1282 38.6883 33.311C38.0549 32.4938 37.1679 31.9102 36.1667 31.6517" stroke="white" stroke-width="2.33333" stroke-linecap="round" stroke-linejoin="round"/>
<path d="M24.4999 26.8333C27.0772 26.8333 29.1666 24.744 29.1666 22.1667C29.1666 19.5893 27.0772 17.5 24.4999 17.5C21.9226 17.5 19.8333 19.5893 19.8333 22.1667C19.8333 24.744 21.9226 26.8333 24.4999 26.8333Z" stroke="white" stroke-width="2.33333" stroke-linecap="round" stroke-linejoin="round"/>
<defs>
<linearGradient id="paint0_linear_1_70" x1="0" y1="0" x2="56" y2="56" gradientUnits="userSpaceOnUse">
<stop stop-color="#2B7FFF"/>
<stop offset="1" stop-color="#4F39F6"/>
</linearGradient>
</defs>
</svg>
